<?xml version="1.0" standalone="no"?>
<!DOCTYPE svg PUBLIC "-//W3C//DTD SVG 1.1//EN" "http://www.w3.org/Graphics/SVG/1.1/DTD/svg11.dtd" >
<svg xmlns="http://www.w3.org/2000/svg">
<metadata>Generated by IcoMoon</metadata>
<defs>
<font id="icomoon" horiz-adv-x="1024">
<font-face units-per-em="1024" ascent="960" descent="-64" />
<missing-glyph horiz-adv-x="1024" />
<glyph unicode="&#x20;" horiz-adv-x="512" d="" />
<glyph unicode="&#xe900;" glyph-name="ikona_01" d="M592.608-64h-191.872v512h-128v176.448l128 0.064-0.192 103.936c0 143.936 39.040 231.52 208.576 231.52h141.184v-176.48h-88.224c-66.048 0-69.216-24.672-69.216-70.688l-0.256-88.288h158.656l-18.656-176.448-139.84-0.064-0.128-512z" />
<glyph unicode="&#xe901;" glyph-name="ikona_02" d="M898.72 553.952c-2.144-66.912-18.912-129.696-45.888-190.080-43.872-98.144-108.096-182.336-180.8-260.544-47.808-51.456-99.232-99.072-153.856-143.2-4.736-3.84-7.84-5.408-13.504-0.768-108.704 88.832-206.112 188.032-282.432 306.56-40.096 62.304-71.008 128.64-87.488 201.44-46.4 205.056 82.912 413.12 287.584 461.824 207.84 49.44 418.72-82.688 464.288-291.584 5.984-27.488 8.16-55.776 12.128-83.648zM514.112 785.44c-110.912 0-200.608-89.664-200.608-200.512 0-110.624 90.080-200.736 200.64-200.736 110.432 0 200.672 90.24 200.704 200.8 0 110.72-89.888 200.48-200.736 200.48z" />
<glyph unicode="&#xe902;" glyph-name="ikona_03" d="M984.224 747.552c-36.96 43.936-105.184 61.856-235.52 61.856h-473.12c-133.28 0-202.688-19.104-239.52-65.856-35.904-45.6-35.904-112.832-35.904-205.824v-177.248c0-180.192 42.592-271.68 275.424-271.68h473.088c113.024 0 175.648 15.808 216.16 54.592 41.536 39.744 59.296 104.672 59.296 217.088v177.248c0 98.112-2.784 165.696-39.904 209.824v0zM657.568 424.64l-214.816-112.288c-4.832-2.528-10.080-3.776-15.328-3.776-5.952 0-11.872 1.6-17.12 4.768-9.888 5.984-15.904 16.704-15.904 28.288v223.808c0 11.552 6.016 22.24 15.872 28.224 9.888 6.016 22.144 6.4 32.384 1.088l214.816-111.52c10.912-5.696 17.824-16.96 17.824-29.28 0.032-12.32-6.816-23.616-17.728-29.312v0z" />
<glyph unicode="&#xe903;" glyph-name="ikona_04" d="M513.632 338.912c126.656 126.912 249.696 251.232 374.432 373.76 15.232 14.976 49.248 33.984 58.368 27.648 28.512-19.712 51.040-49.376 71.552-78.272 4.064-5.76-8.16-28.096-17.824-37.856-151.072-152.352-303.072-303.744-454.528-455.68-23.008-23.136-43.36-22.944-66.304 0.128-151.424 151.968-303.136 303.68-455.104 455.136-24.128 24.032-26.144 46.432-1.024 70.368 9.92 9.472 19.808 18.976 28.864 29.216 25.728 29.024 48.832 27.968 76.448-0.064 118.592-120.224 238.496-239.2 357.984-358.592 7.456-7.456 15.296-14.56 27.168-25.792z" />
<glyph unicode="&#xe904;" glyph-name="ikona_05" d="M510.368 557.088c-126.656-126.912-249.664-251.232-374.432-373.76-15.232-14.976-49.248-33.984-58.368-27.648-28.512 19.68-51.040 49.376-71.552 78.24-4.064 5.76 8.16 28.096 17.824 37.856 151.072 152.32 303.072 303.712 454.496 455.68 23.008 23.136 43.36 22.944 66.304-0.128 151.424-151.968 303.104-303.68 455.104-455.104 24.128-24 26.176-46.432 1.056-70.336-9.92-9.472-19.808-18.976-28.896-29.216-25.728-29.024-48.832-27.968-76.448 0.064-118.592 120.224-238.496 239.2-357.92 358.592-7.456 7.456-15.296 14.56-27.136 25.792z" />
<glyph unicode="&#xe905;" glyph-name="ikona_06" d="M621.088 449.632c-126.912 126.688-251.232 249.664-373.76 374.432-14.976 15.232-33.984 49.248-27.648 58.336 19.68 28.512 49.376 51.040 78.24 71.552 5.76 4.064 28.096-8.16 37.856-17.824 152.32-151.072 303.712-303.072 455.648-454.496 23.136-23.008 22.912-43.36-0.128-66.304-151.936-151.424-303.648-303.104-455.104-455.072-24-24.128-46.432-26.176-70.336-1.056-9.472 9.92-18.976 19.808-29.216 28.896-29.024 25.728-27.968 48.832 0.064 76.448 120.224 118.592 239.2 238.496 358.56 357.92 7.456 7.456 14.56 15.328 25.792 27.168z" />
<glyph unicode="&#xe906;" glyph-name="ikona_07" d="M402.912 446.368c126.912-126.656 251.232-249.664 373.76-374.432 14.976-15.232 33.984-49.248 27.648-58.368-19.68-28.512-49.376-51.040-78.24-71.552-5.76-4.064-28.096 8.16-37.856 17.824-152.32 151.072-303.712 303.072-455.68 454.496-23.136 23.008-22.944 43.328 0.128 66.304 151.968 151.424 303.68 303.104 455.104 455.104 24 24.128 46.432 26.176 70.336 1.056 9.472-9.92 18.976-19.808 29.216-28.896 29.024-25.728 27.968-48.832-0.064-76.448-120.224-118.592-239.2-238.496-358.592-357.92-7.456-7.456-14.56-15.296-25.792-27.168z" />
<glyph unicode="&#xe907;" glyph-name="ikona_08" d="M1011.872 3.040l-205.216 205.152c65.472 78.848 104.896 180 104.896 290.144 0 250.848-204 454.912-454.816 454.912-250.88 0-454.912-204.064-454.912-454.912s204.064-454.816 454.912-454.816c115.232 0 220.256 43.392 300.48 114.272l204.736-204.672c6.88-6.912 15.968-10.336 24.96-10.336s18.112 3.424 24.992 10.336c13.824 13.824 13.824 36.16-0.032 49.952zM82.496 498.336c0 206.304 167.872 374.176 374.208 374.176 206.272 0 374.112-167.872 374.112-374.176s-167.872-374.144-374.112-374.144c-206.336 0-374.208 167.84-374.208 374.144z" />
<glyph unicode="&#xe908;" glyph-name="ikona_09" d="M807.040 906.912c-29.504-27.552-59.264-54.848-88.48-82.688-124.576-118.784-256.544-245.344-381.088-364.192-3.808-3.616-8.48-6.304-13.824-10.24 159.488-151.872 323.936-308.832 483.008-460.288-19.424-20.256-30.72-32.416-50.848-53.44-179.712 170.816-358.784 340.992-538.848 512.16 179.168 171.168 357.216 341.216 535.744 511.776 21.28-19.936 33.984-31.392 54.304-50.4 0.032-0.896 0.032-1.792 0.032-2.688z" />
<glyph unicode="&#xe909;" glyph-name="ikona_10" d="M216.928-10.88c29.504 27.552 59.264 54.848 88.48 82.688 124.576 118.784 256.544 245.344 381.088 364.192 3.808 3.616 8.48 6.304 13.824 10.24-159.488 151.872-323.968 308.832-483.040 460.288 19.424 20.256 30.72 32.416 50.848 53.44 179.712-170.816 358.784-340.992 538.848-512.16-179.168-171.168-357.216-341.216-535.776-511.776-21.28 19.936-33.984 31.392-54.304 50.4 0 0.896 0 1.792 0 2.688z" />
<glyph unicode="&#xe90a;" glyph-name="ikona_11" d="M0.032 678.016c4.32 24.576 11.296 48.224 22.88 70.496 27.296 52.672 64.928 97.216 107.584 137.856 10.592 10.112 21.6 19.84 32.608 29.472 19.52 17.024 40.096 16.192 58.4-2.208 57.856-58.24 109.888-121.408 158.56-187.424 12.512-17.024 9.024-35.168-8.8-49.6-34.88-28.16-66.144-59.872-93.44-95.424-13.728-17.888-14.24-30.24-0.384-48.48 25.376-33.344 50.016-67.424 77.28-99.2 61.344-71.424 131.584-132.864 213.248-180.448 18.88-11.040 38.336-21.312 58.048-30.848 19.36-9.472 27.584-7.36 42.72 7.616 29.376 29.056 51.392 63.776 72.672 98.624 17.696 28.992 42.208 27.264 63.136 13.44 59.712-39.392 119.808-78.080 179.744-117.088 5.568-3.616 11.040-7.552 16.928-10.56 11.232-5.664 19.008-14.080 22.784-26.144 0-5.376 0-10.656 0-16-1.472-2.496-2.816-5.12-4.48-7.456-54.080-77.856-118.944-144.064-204.096-188.256-5.792-3.008-12.288-4.992-18.688-6.336-23.456-4.864-46.464-0.32-69.056 5.216-94.56 23.072-182.688 61.92-266.752 110.4-113.664 65.6-212.608 148.512-294.496 251.232-74.848 93.984-130.208 198.528-166.4 313.152-0.032 9.344-0.032 18.688-0.032 27.968z" />
<glyph unicode="&#xe90b;" glyph-name="ikona_12" d="M631.36 340.832c-30.368-18.112-62.976-32.544-95.040-47.712-16.32-7.712-33.376-6.336-50.336 0.32-45.472 17.76-86.752 43.328-127.616 69.408-123.744 79.008-241.568 166.272-358.336 255.072 0-176.672 0-353.312 0-529.984 6.944-20.896 17.472-39.36 36.448-51.872 13.952-9.152 29.056-14.336 45.888-14.336 285.984 0 571.936-0.032 857.888 0.096 40.192 0.032 74.272 29.056 81.888 68.48 0.384 1.952 1.248 3.744 1.856 5.632 0 173.952 0 347.968 0 521.952-23.104-17.408-46.144-34.848-69.28-52.256-104.992-78.944-210.336-157.472-323.36-224.832zM1007.264 838.848c-16.64 24.416-41.152 35.424-70.976 35.392-189.632-0.16-379.296-0.096-568.96-0.096-92.672 0-185.344 0.032-277.984 0-45.216-0.032-74.080-21.376-88-64.832-0.192-0.544-0.864-0.928-1.312-1.408 0-19.328 0-38.688 0-58.016 67.808-52.128 135.104-104.896 203.488-156.256 72.896-54.752 146.816-108.16 225.856-153.856 18.336-10.592 37.888-19.072 57.056-28.224 16.544-7.936 33.248-7.104 50.24-0.512 42.112 16.32 80.16 40.128 117.824 64.48 109.056 70.592 212.416 149.088 314.848 228.768 18.4 14.304 36.416 29.056 54.624 43.616 0 17.312 0 34.656 0 52-5.408 13.056-8.896 27.424-16.704 38.912z" />
<glyph unicode="&#xe90c;" glyph-name="ikona_13" d="M12.832 739.936c4.288-4.32 9.888-6.528 15.552-6.528 5.6 0 11.2 2.176 15.52 6.528l73.76 74.72 73.76-74.72c4.256-4.32 9.856-6.528 15.52-6.528 5.6 0 11.2 2.176 15.52 6.528 8.576 8.704 8.576 22.752 0 31.488l-73.76 74.72 73.76 74.72c8.576 8.704 8.576 22.752 0 31.488-8.576 8.672-22.464 8.672-31.040 0l-73.76-74.72-73.76 74.72c-8.608 8.672-22.464 8.672-31.072 0-8.576-8.704-8.576-22.752 0-31.488l73.76-74.72-73.76-74.72c-8.544-8.736-8.544-22.784 0.064-31.488zM863.328 725.28c0-12.288 9.792-22.24 21.952-22.24 12.128 0 21.952 9.952 21.952 22.24v155.808c0 1.024-0.448 1.984-0.608 2.944-0.256 1.664-0.384 3.232-0.96 4.864-0.576 1.44-1.408 2.656-2.208 3.904-0.608 0.96-0.832 2.048-1.632 2.912-0.192 0.224-0.448 0.288-0.64 0.48-1.088 1.152-2.464 2.016-3.808 2.912-1.024 0.736-1.984 1.632-3.072 2.112-1.248 0.576-2.592 0.736-3.936 1.056-1.44 0.32-2.816 0.8-4.32 0.832-0.288 0-0.48 0.192-0.736 0.192h-153.696c-12.16 0-21.952-9.952-21.952-22.272s9.792-22.272 21.952-22.272h95.136l-170.624-151.104c-73.888-71.36-103.968-131.776-103.968-208.512v-148.672c0-105.984-72.736-192.704-176.896-211.136l-82.848-14.592c-16.576 64.608-74.112 112.704-142.976 112.704-81.696 0-148.192-67.36-148.192-150.176 0-82.88 66.496-150.24 148.192-150.24 79.424 0 143.904 63.744 147.552 143.328l85.824 15.136c125.504 22.080 213.216 126.912 213.216 254.88v148.672c0 64 25.376 113.472 89.632 175.616l177.664 157.248v-106.752zM149.472-18.336c-57.504 0-104.288 47.424-104.288 105.696 0 58.208 46.784 105.632 104.288 105.632 57.536 0 104.288-47.424 104.288-105.632 0-58.272-46.752-105.696-104.288-105.696zM170.944 564.832c-8.608-8.736-8.608-22.752 0-31.488l73.728-74.784-73.696-74.784c-8.608-8.672-8.608-22.752 0-31.456 4.256-4.32 9.888-6.56 15.456-6.56 5.632 0 11.232 2.176 15.552 6.56l73.76 74.72 73.76-74.72c4.256-4.32 9.888-6.56 15.52-6.56s11.232 2.176 15.52 6.56c8.608 8.672 8.608 22.752 0 31.456l-73.76 74.784 73.76 74.784c8.608 8.704 8.608 22.752 0 31.488-8.576 8.672-22.432 8.672-31.040 0l-73.76-74.72-73.76 74.72c-8.512 8.672-22.4 8.672-30.976 0zM942.528 549.088l73.76 74.784c8.576 8.704 8.576 22.752 0 31.488-8.576 8.672-22.464 8.672-31.040 0l-73.76-74.72-73.76 74.72c-8.576 8.672-22.464 8.672-31.072 0-8.576-8.704-8.576-22.752 0-31.488l73.792-74.784-73.792-74.72c-8.576-8.672-8.576-22.752 0-31.424 4.288-4.32 9.888-6.56 15.552-6.56 5.6 0 11.2 2.176 15.52 6.56l73.76 74.72 73.76-74.72c4.288-4.32 9.888-6.56 15.52-6.56s11.232 2.176 15.52 6.56c8.576 8.672 8.576 22.752 0 31.424l-73.664 74.72zM951.104 178.976c-8.576 8.736-22.464 8.736-31.072 0l-73.76-74.72-73.792 74.72c-8.576 8.736-22.464 8.736-31.040 0-8.576-8.672-8.576-22.752 0-31.456l73.76-74.72-73.76-74.816c-8.576-8.672-8.576-22.752 0-31.456 4.288-4.32 9.888-6.56 15.52-6.56s11.2 2.176 15.52 6.56l73.792 74.72 73.76-74.72c4.288-4.32 9.888-6.56 15.552-6.56 5.6 0 11.2 2.176 15.52 6.56 8.576 8.672 8.576 22.752 0 31.456l-73.792 74.816 73.792 74.72c8.672 8.672 8.672 22.784 0.064 31.456z" />
<glyph unicode="&#xe90d;" glyph-name="ikona_14" d="M218.176 762.816c3.68 0 7.328 0.96 10.656 3.232 9.728 6.72 12.352 18.688 5.728 28.608 0.032 0.16 5.728 6.816 33.472 9.76 38.304 4.16 62.048 15.136 72.736 33.536 7.328 12.608 6.496 25.632 3.168 33.696-4.512 11.072-17.184 16.256-27.872 11.68-9.536-4-14.656-14.24-12.768-24.096-2.368-2.304-11.584-8.576-39.776-11.68-36.64-3.936-58.656-15.136-67.392-34.24-7.040-15.296-2.752-31.040 3.104-39.84 4.32-6.688 11.68-10.688 18.944-10.688zM1002.464 53.952h-49.248v508.128c0 0.288-0.16 0.544-0.16 0.832-0.064 1.344-0.512 2.592-0.768 3.936-0.352 1.472-0.64 2.944-1.248 4.32-0.064 0.224-0.064 0.48-0.224 0.736-0.448 0.864-1.184 1.44-1.76 2.24-0.896 1.312-1.76 2.592-2.944 3.68-0.96 0.928-2.208 1.568-3.328 2.272-1.184 0.736-2.24 1.472-3.616 1.952-1.472 0.576-3.104 0.768-4.64 0.928-0.96 0.16-1.824 0.576-2.816 0.576-0.224 0-0.448-0.16-0.736-0.16-1.408-0.032-2.816-0.544-4.288-0.864-1.408-0.352-2.816-0.576-4.064-1.152-0.224-0.096-0.512-0.096-0.736-0.224l-224.704-115.712v96.64c0 1.984-0.64 3.744-1.12 5.6-0.224 0.8-0.16 1.632-0.512 2.4 0 0.032 0 0.032 0 0.064-3.040 7.296-9.856 12.288-18.048 13.024-0.576 0.032-1.056 0.288-1.632 0.288-0.064 0.032-0.16 0.064-0.224 0.064-2.144 0-4-0.64-5.984-1.184-0.64-0.224-1.408-0.096-2.048-0.384l-0.224-0.064c-0.064-0.032-0.16-0.064-0.288-0.096l-271.648-109.792c-11.040-4.448-16.288-16.96-11.872-27.904 3.392-8.384 11.392-13.504 19.904-13.504 2.656 0 5.408 0.576 8.032 1.632l242.592 97.984v-99.968c0-0.288 0.16-0.576 0.16-0.832 0.064-1.344 0.512-2.592 0.768-3.936 0.352-1.472 0.64-2.944 1.248-4.352 0.064-0.224 0.064-0.512 0.224-0.736 0.224-0.448 0.736-0.64 0.96-1.056 1.568-2.528 3.52-4.64 5.92-6.336 0.768-0.576 1.408-1.056 2.24-1.472 2.944-1.632 6.272-2.752 9.92-2.752 3.328 0 6.336 0.832 9.152 2.208 0.224 0.16 0.448 0.064 0.64 0.224l224.704 115.68v-472.896h-491.648c-6.688 35.36-27.136 150.4-42.368 300.32-18.432 180.672-25.76 344.416-25.824 346.080-0.032 1.184-0.608 2.208-0.8 3.36-0.352 1.536-0.512 3.104-1.152 4.512-0.256 0.576-0.672 0.96-0.96 1.504-3.712 6.56-10.432 11.168-18.496 11.168h-165.888c-8.128 0-14.912-4.64-18.56-11.264-0.288-0.512-0.672-0.832-0.896-1.344-0.672-1.472-0.832-3.136-1.152-4.768-0.256-1.088-0.768-2.016-0.8-3.168-0.064-1.664-7.36-165.408-25.792-346.080-15.264-149.76-35.712-264.896-42.368-300.32h-51.872c-11.872 0-21.504-9.664-21.504-21.504 0-11.904 9.632-21.504 21.504-21.504h980.96c11.904 0 21.504 9.6 21.504 21.504-0.032 11.84-9.632 21.472-21.536 21.472zM158.464 349.92c14.752 144.768 22.432 278.464 24.96 328h125.024c0.832-16.384 2.24-41.92 4.288-74.080l-76.48-0.544c-11.872-0.096-21.44-9.76-21.344-21.632 0.096-11.808 9.696-21.344 21.504-21.344 0.032 0 0.096 0 0.16 0l79.040 0.544c4.16-59.872 9.984-133.824 17.856-210.976 14.368-141.472 33.44-252.544 41.376-295.936h-257.76c8 43.424 27.040 154.528 41.408 295.968z" />
<glyph unicode="&#xe90e;" glyph-name="ikona_15" d="M1021.536 757.504c-1.952 5.92-6.496 10.752-12.48 13.216l-292.256 120.832c-10.080 4.256-22.112 0.704-28.032-8.32l-100.736-155.040-278.016-30.592-15.552 34.688c-2.144 4.832-6.016 8.64-10.944 10.912l-249.952 113.888c-8.448 3.808-18.496 2.304-25.216-3.84-6.752-6.144-8.832-15.648-5.152-23.808l81.024-180.768v-461.024c0-7.2 3.84-14.016 10.272-17.92l264.928-163.584c0.384-0.256 0.864-0.16 1.28-0.352 3.36-1.824 7.040-3.072 10.912-3.072 0.864 0 1.664 0 2.56 0.16l494.784 54.496c11.328 1.216 19.872 10.368 19.872 21.248v459.904l130.432 201.344c3.392 5.248 4.192 11.68 2.24 17.632zM623.872 668.8l178.784-110.336-178.784-19.712v130.048zM67.904 793.952l188.576-85.856 75.648-168.736-207.456 128.064-56.768 126.528zM349.184 63.36l-220 135.84v414.432l220-135.808v-414.496zM328.448 656.512l250.528 27.616v-150.304l-186.304-20.512-64.224 143.2zM843.936 97.6l-449.824-49.568v422.336l449.824 49.568v-422.368zM859.296 574.432l-227.264 140.288 84.64 130.24 250.688-103.648-108.064-166.88z" />
<glyph unicode="&#xe90f;" glyph-name="ikona_16" d="M399.968 119.808l-99.584-96.384v910.944c0 14.144-11.84 25.6-26.464 25.6s-26.432-11.456-26.432-25.6v-910.944l-99.616 96.384c-10.368 10.016-27.104 10.016-37.44 0-5.152-4.96-7.776-11.552-7.776-18.048s2.592-13.088 7.776-18.112l144.736-140.064c2.432-2.336 5.312-4.256 8.576-5.536 3.2-1.28 6.624-2.016 10.176-2.016s7.008 0.704 10.208 2.016 6.144 3.2 8.544 5.536l144.704 140.064c10.336 10.016 10.336 26.272 0 36.224s-27.072 9.952-37.408-0.032zM913.536 812.352l-144.704 140.064c-2.432 2.336-5.312 4.192-8.576 5.536-3.168 1.312-6.624 2.016-10.176 2.016s-7.008-0.704-10.208-2.016c-3.232-1.344-6.144-3.2-8.544-5.536l-144.768-140.064c-5.152-4.992-7.744-11.584-7.744-18.080s2.56-13.12 7.744-18.080c10.336-10.016 27.072-10.016 37.408 0l99.648 96.416v-910.944c0-14.144 11.84-25.6 26.464-25.6s26.432 11.456 26.432 25.6v910.944l99.616-96.416c10.336-10.016 27.072-10.016 37.408 0s10.336 26.176 0 36.192z" />
<glyph unicode="&#xe910;" glyph-name="ikona_17" d="M1020.736 389.184l-91.040 330.912c-1.536 5.632-5.216 10.368-10.144 13.216s-10.784 3.52-16.288 1.952l-155.2-45.28c-8.704-2.528-14.528-10.272-15.36-19.040l-29.024-9.056c-140.736 73.056-202.368 58.304-206.56 56.768-24.896-4-46.88-12.576-66.368-23.68-71.52-1.696-114.688-5.28-141.088-9.6-2.336 6.24-7.072 11.488-13.792 13.44l-155.2 45.28c-5.536 1.6-11.36 0.928-16.288-1.952s-8.608-7.584-10.144-13.216l-91.008-330.912c-3.232-11.712 3.36-23.872 14.72-27.168l155.2-45.28c1.92-0.544 3.872-0.832 5.824-0.832 3.648 0 7.232 0.928 10.432 2.784 4.928 2.848 8.608 7.584 10.144 13.216l11.36 41.28c62.656-84.736 201.504-196.576 219.488-210.88 16.416-14.304 32.864-20.064 47.808-20.064 18.432 0 34.528 8.896 45.024 21.728 4.704 5.728 8.32 12.448 10.816 19.68l8.096-7.232c14.432-12.608 30.72-19.168 46.72-19.168 6.784 0 13.536 1.184 20.064 3.616 19.488 7.2 34.944 25.024 40.448 46.208 25.312-6.816 50.432 4.512 66.24 23.712 9.888 12 16.192 27.232 16.992 42.976 17.568 1.888 33.76 11.616 45.152 25.376 7.392 8.992 12.576 19.872 15.136 31.328 8.608 0.096 18.336 1.184 28.032 4.512l3.264-11.872c1.536-5.6 5.216-10.368 10.144-13.216 3.2-1.888 6.816-2.784 10.432-2.784 1.952 0 3.936 0.288 5.824 0.832l155.232 45.248c11.456 3.264 18.080 15.456 14.848 27.168zM164.288 373.888l-114.080 33.28 79.392 288.576 114.048-33.248-79.36-288.608zM745.248 336.384c-2.528-3.168-16.224-18.144-32.448-4.096l-3.040 2.688c-0.128 0.128-0.288 0.256-0.416 0.384l-0.064 0.032c0 0 0 0.032-0.032 0.032l-91.584 79.168c-8.992 7.808-22.496 6.624-30.112-2.688-7.584-9.344-6.432-23.2 2.656-31.008l91.68-79.296c15.872-14.080 3.808-30.464 1.216-33.6-2.528-3.136-16.224-18.080-32.48-4l-22.304 19.392v0.032h-0.032c-0.064 0.032-0.128 0.032-0.16 0.096-1.024 1.376-1.856 2.912-3.232 4.032l-74.656 62.912c-9.12 7.712-22.592 6.368-30.048-3.072s-6.144-23.264 3.008-30.976l74.624-62.88c0.96-1.28 1.664-2.656 2.88-3.744 0 0 0 0 0.064 0l0.032-0.064c8.224-7.2 8.8-15.232 7.84-20.736-1.472-8.16-7.072-15.392-13.984-17.952-9.12-3.456-18.496 2.272-24.48 7.52l-88.48 79.104c-0.992 0.864-2.176 1.248-3.232 1.888-1.216 0.736-2.304 1.632-3.616 2.112-1.44 0.544-2.944 0.608-4.448 0.8-1.216 0.16-2.368 0.512-3.584 0.448-1.536-0.064-2.976-0.544-4.448-0.96-1.184-0.32-2.336-0.448-3.456-0.992-1.408-0.672-2.592-1.76-3.872-2.72-0.864-0.672-1.888-1.056-2.72-1.888-0.128-0.16-0.16-0.352-0.288-0.48-0.16-0.192-0.384-0.256-0.544-0.448-0.928-1.088-1.312-2.4-1.952-3.616-0.672-1.12-1.44-2.176-1.888-3.392-0.512-1.44-0.608-2.976-0.8-4.48-0.16-1.312-0.48-2.528-0.448-3.808 0.064-1.472 0.544-2.848 0.864-4.32 0.32-1.312 0.448-2.624 0.992-3.872 0.576-1.312 1.568-2.368 2.368-3.584 0.736-1.056 1.184-2.208 2.080-3.104l33.632-33.504c11.808-10.272 10.528-23.040 4.384-30.56-7.392-9.088-19.616-7.712-33.312 4.128-56.384 44.896-203.904 171.328-230.88 233.056l55.2 200.704c9.92 2.528 35.488 6.88 94.656 9.856-20.192-24.448-34.048-52.064-40.288-78.688-9.696-41.216-1.312-76.416 22.272-94.112 13.248-9.952 28.992-13.632 45.216-10.464 37.824 7.168 72.384 49.76 87.168 70.528 14.624 0.704 31.36 5.408 43.776 9.696l209.344-175.744c3.552-3.104 5.6-6.304 6.784-9.44 0.16-1.152 0.608-2.176 0.96-3.232 1.888-9.92-4.512-18.784-6.368-21.024zM787.456 383.36c-3.84 7.264-8.992 14.304-16.288 20.672l-219.008 183.84c-5.952 4.96-14.144 6.336-21.152 3.488-17.696-6.976-39.168-12.288-45.056-11.264-9.056 2.656-18.72-1.024-23.808-9.12-11.616-18.304-43.040-57.536-66.304-61.92-5.056-0.864-8.64-0.096-12.32 2.72-8.768 6.56-11.136 25.952-5.92 48.224 11.456 49.056 54.976 103.68 128.224 115.712 0.576 0.096 55.68 12.16 186.016-56.928 4.992-2.656 10.752-3.168 15.968-1.504l35.040 10.912 66.496-241.792c-7.136-3.104-15.456-3.52-21.952-3.040zM859.712 365.056l-79.392 288.576 114.048 33.28 79.392-288.576-114.048-33.28z" />
<glyph unicode="&#xe911;" glyph-name="ikona_18" d="M841.952 769.088c-88 85.632-205.184 132.8-329.984 132.8-124.768 0-241.952-47.168-329.984-132.8-181.92-177.056-181.92-465.152 0-642.144 88.032-85.6 205.248-132.832 330.016-132.832 0.032 0 0.032 0 0.032 0 124.768 0 241.984 47.2 329.984 132.832 181.984 176.992 181.92 465.088-0.064 642.144zM813.76 154.4c-80.48-78.336-187.616-121.44-301.728-121.44-114.144 0-221.344 43.136-301.824 121.44-166.336 161.888-166.336 425.28 0 587.168 80.48 78.336 187.616 121.44 301.728 121.44s221.28-43.136 301.792-121.44c166.4-161.888 166.432-425.28 0.032-587.168zM772.832 557.536l-170.432 3.36-55.872 154.816c-5.216 14.496-18.784 23.808-34.528 23.808-15.808 0-29.344-9.376-34.528-23.808l-55.872-154.816-170.496-3.36c-15.84-0.352-29.184-10.048-34.048-24.704-4.832-14.624 0.192-30.112 12.864-39.392l135.584-98.912-49.248-156.576c-3.392-10.912-1.44-22.368 5.504-31.456 6.944-9.184 18.016-14.624 29.6-14.624 7.36 0 14.496 2.176 20.64 6.336l140.064 93.856 140.064-93.856c6.144-4.16 13.28-6.336 20.608-6.336 11.616 0 22.72 5.472 29.696 14.688 6.88 9.056 8.864 20.512 5.408 31.392l-49.216 156.576 135.584 98.944c12.608 9.28 17.632 24.736 12.768 39.392s-18.272 24.32-34.112 24.672zM623.36 417.44c-6.752-4.896-9.6-13.44-7.104-21.216l52.512-161.984-145.44 97.408c-3.392 2.272-7.36 3.424-11.328 3.424s-7.936-1.152-11.328-3.424l-143.424-96.16 50.528 160.704c2.464 7.808-0.384 16.32-7.136 21.216l-138.976 101.408 174.56 3.488c8.32 0.16 15.68 5.344 18.464 12.96l57.344 158.784 57.312-158.784c2.752-7.616 10.112-12.832 18.464-12.96l174.56-3.488-139.040-101.408z" />
<glyph unicode="&#xe912;" glyph-name="ikona_19" d="M464.288 192.864c-10.912 4.064-22.912-1.728-26.88-12.96l-62.848-178.624-53.952 68.224c-4.864 6.144-12.512 8.96-20.096 7.552l-83.68-16.352 66.72 189.696c3.968 11.296-1.664 23.68-12.512 27.808-10.848 4.032-22.944-1.728-26.88-12.96l-79.36-225.504c-2.56-7.328-1.12-15.488 3.776-21.408 4.832-5.952 12.448-8.832 19.84-7.296l107.648 20.96 69.44-87.648c4-5.12 9.984-8 16.224-8 1.12 0 2.304 0.064 3.52 0.288 7.392 1.28 13.568 6.656 16.16 13.984l75.424 214.368c4.032 11.296-1.632 23.68-12.48 27.808zM780.96 265.248c-3.968 11.264-15.936 16.992-26.88 12.96-10.88-4.128-16.512-16.512-12.512-27.808l66.752-189.696-83.68 16.352c-7.552 1.408-15.264-1.408-20.096-7.552l-53.984-68.224-62.848 178.624c-4 11.264-15.968 17.056-26.88 12.96-10.88-4.128-16.512-16.512-12.512-27.808l75.424-214.368c2.592-7.36 8.768-12.704 16.16-13.984 1.184-0.256 2.368-0.288 3.52-0.288 6.24 0 12.192 2.88 16.224 8l69.472 87.648 107.648-20.96c7.328-1.408 14.976 1.344 19.872 7.296s6.304 14.080 3.712 21.408l-79.328 225.504zM823.936 585.824l46.592 83.488c2.784 5.024 3.552 10.88 2.144 16.416-1.472 5.6-4.96 10.304-9.792 13.184l-80.736 48.256v96.384c0 12-9.376 21.696-20.96 21.696h-93.216l-46.656 83.488c-2.784 4.992-7.328 8.608-12.736 10.144-5.344 1.408-11.104 0.704-15.904-2.208l-80.704-48.256-80.704 48.256c-4.768 2.912-10.592 3.616-15.904 2.208-5.408-1.536-9.92-5.152-12.736-10.144l-46.656-83.488h-93.216c-11.616 0-20.96-9.664-20.96-21.696v-96.384l-80.704-48.256c-4.8-2.88-8.32-7.584-9.792-13.184-1.408-5.536-0.64-11.392 2.112-16.416l46.624-83.488-46.624-83.488c-2.784-4.992-3.52-10.848-2.112-16.416 1.472-5.6 4.96-10.304 9.792-13.184l80.704-48.256v-96.384c0-11.968 9.376-21.696 20.96-21.696h93.216l46.656-83.52c2.784-4.96 7.328-8.576 12.736-10.112 5.312-1.408 11.104-0.704 15.904 2.208l80.704 48.256 80.704-48.256c3.2-1.92 6.848-2.912 10.496-2.912 1.792 0 3.648 0.256 5.408 0.704 5.408 1.536 9.92 5.152 12.736 10.112l46.656 83.52h93.216c11.616 0 20.96 9.696 20.96 21.696v96.384l80.736 48.256c4.8 2.88 8.32 7.584 9.792 13.184 1.408 5.6 0.64 11.424-2.144 16.416l-46.624 83.52zM781.6 575.008l42.176-75.552-73.056-43.616c-6.464-3.872-10.464-11.040-10.464-18.816v-87.2h-84.352c-7.52 0-14.4-4.192-18.176-10.88l-42.144-75.552-73.056 43.616c-3.232 1.92-6.88 2.944-10.496 2.944s-7.264-0.992-10.496-2.944l-73.056-43.616-42.144 75.552c-3.744 6.72-10.656 10.88-18.176 10.88h-84.352v87.2c0 7.776-4 14.912-10.464 18.816l-73.056 43.616 42.176 75.552c3.776 6.72 3.776 15.008 0 21.696l-42.176 75.552 73.056 43.616c6.464 3.872 10.464 11.040 10.464 18.816v87.2h84.352c7.488 0 14.4 4.192 18.176 10.88l42.144 75.552 73.056-43.616c6.464-3.872 14.496-3.872 20.96 0l73.056 43.616 42.144-75.552c3.744-6.72 10.656-10.88 18.176-10.88h84.352v-87.2c0-7.776 4-14.912 10.464-18.816l73.056-43.616-42.176-75.552c-3.744-6.688-3.744-15.008 0.032-21.696zM512 806.432c-117.568 0-213.28-98.912-213.28-220.608s95.712-220.576 213.28-220.576c117.6 0 213.248 98.912 213.248 220.576s-95.648 220.608-213.248 220.608zM512 408.64c-94.496 0-171.296 79.488-171.296 177.184s76.832 177.216 171.296 177.216 171.328-79.488 171.328-177.216c0-97.728-76.864-177.184-171.328-177.184z" />
<glyph unicode="&#xe913;" glyph-name="ikona_20" d="M512 960c-27.424 0-144.832-195.904-194.016-280.16-113.952-195.008-171.712-332.544-171.712-408.736 0-184.768 164.032-335.072 365.728-335.072s365.76 150.304 365.76 335.072c0 142.080-312.16 688.896-365.76 688.896zM512-20.48c-175.456 0-318.208 130.816-318.208 291.616 0 139.68 246.784 526.688 318.208 628.928 71.392-102.24 318.24-489.28 318.24-628.928 0.032-160.8-142.752-291.616-318.24-291.616zM450.336 103.872c-83.008 19.072-141.024 87.328-141.024 165.856 0 19.424 8.928 60.192 51.328 144.096 5.504 10.912 0.352 23.808-11.584 28.864-11.904 5.152-25.984 0.288-31.552-10.56-37.472-74.176-55.68-127.296-55.68-162.368 0-98.528 72.736-184.096 176.96-208.032 1.952-0.416 3.936-0.608 5.824-0.608 10.656 0 20.32 6.592 23.072 16.448 3.104 11.648-4.608 23.424-17.312 26.336z" />
<glyph unicode="&#xe914;" glyph-name="ikona_21" d="M1008 812.448l-490.176 146.464c-3.808 1.152-7.808 1.152-11.616 0l-490.176-146.464c-9.152-2.752-15.456-11.52-15.456-21.536v-832.32c0-12.384 9.568-22.4 21.312-22.4h85.248c11.776 0 21.28 10.048 21.28 22.4v649.152h767.2v-649.12c0-12.384 9.568-22.4 21.28-22.4h85.28c11.744 0 21.28 10.048 21.28 22.4v832.288c0 10.048-6.336 18.784-15.52 21.536zM980.864-19.040h-42.592v649.12c0 12.384-9.568 22.4-21.344 22.4h-809.824c-11.808 0-21.344-10.048-21.344-22.4v-649.12h-42.624v793.024l468.864 140.16 468.864-140.16v-793.024zM788.8 339.072h-148.896v156.704c0 12.384-9.568 22.4-21.28 22.4h-170.528c-11.776 0-21.312-10.048-21.312-22.4v-335.744h-149.184c-11.744 0-21.28-9.984-21.28-22.336v-179.072c0-12.384 9.568-22.4 21.28-22.4h511.264c11.744 0 21.28 10.048 21.28 22.4v358.144c-0.032 12.352-9.6 22.304-21.312 22.304zM426.752-19.040h-127.84v134.304h127.84v-134.304zM596.992-19.040h-127.648v134.304h127.648v-134.304zM596.992 160.032h-127.648v134.304h127.648v-134.304zM597.248 339.072h-127.872v134.368h127.872v-134.368zM767.456-19.040h-127.552v134.304h127.552v-134.304zM767.456 160.032h-127.552v134.304h127.552v-134.304zM426.272 719.616c0-12.384 9.504-22.336 21.28-22.336h128.064c11.808 0 21.344 9.984 21.344 22.336s-9.568 22.4-21.344 22.4h-128.064c-11.808 0-21.28-10.048-21.28-22.4zM366.336 742.048h-128.096c-11.776 0-21.312-10.048-21.312-22.4s9.568-22.336 21.312-22.336h128.096c11.776 0 21.28 9.984 21.28 22.336s-9.504 22.4-21.28 22.4zM656.928 697.28h128.064c11.808 0 21.28 9.984 21.28 22.336s-9.504 22.4-21.28 22.4h-128.064c-11.808 0-21.344-10.048-21.344-22.4s9.568-22.336 21.344-22.336z" />
<glyph unicode="&#xe915;" glyph-name="ikona_22" d="M512 959.68c-282.304 0-511.968-229.536-511.968-511.68s229.664-511.648 511.968-511.648 512 229.504 512 511.648-229.696 511.68-512 511.68zM512-20.768c-258.592 0-469.024 210.272-469.024 468.736s210.432 468.736 469.024 468.736 469.024-210.24 469.024-468.736c0-258.464-210.464-468.736-469.024-468.736zM512.096 577.184c70.528 0 127.84 57.28 127.84 127.744s-57.344 127.808-127.84 127.808c-70.496 0-127.84-57.344-127.84-127.808s57.408-127.744 127.84-127.744zM512.096 789.792c46.816 0 84.896-38.048 84.896-84.864s-38.080-84.832-84.896-84.832c-46.848 0-84.928 38.080-84.928 84.832 0 46.784 38.080 84.864 84.928 84.864zM662.976 230.944h-18.656v269.216c0 18.976-15.36 34.4-34.24 34.4h-207.904c-17.632 0-33.152-7.712-43.648-21.76-8.48-11.296-13.184-26.112-13.184-41.696 0-36.352 23.872-62.816 56.832-62.816h30.080v-177.344h-30.080c-32.384 0-56.832-27.424-56.832-63.712s23.872-62.528 56.832-62.528h260.8c17.696 0 33.216 7.52 43.648 21.28 8.448 11.104 13.12 25.76 13.12 41.28 0 36.32-24.416 63.712-56.8 63.712zM662.976 147.616h-260.8c-13.184 0-13.888 16.352-13.888 19.616 0 0.224 0.128 20.768 13.888 20.768h51.552c11.904 0 21.504 9.568 21.504 21.472v220.256c0 11.904-9.6 21.504-21.504 21.504h-51.552c-13.184 0-13.888 16.576-13.888 19.84 0 0.8 0.192 20.544 13.888 20.544h199.2v-282.112c0-11.904 9.568-21.472 21.472-21.472h40.128c13.664 0 13.824-20.544 13.824-20.736 0-3.264-0.672-19.648-13.824-19.648z" />
<glyph unicode="&#xe916;" glyph-name="ikona_23" d="M998.656 744.416c0 28.64-11.136 55.52-31.456 75.744l-97.344 97.28c-36.384 36.384-100 36.448-136.448 0l-610.368-609.856c-3.552-3.584-5.28-8.096-5.792-12.736-9.216-20.704-33.664-81.728-109.344-274.112-7.712-18.656-2.848-40.608 12.448-55.936 10.4-10.4 23.616-15.904 36.864-15.904 6.208 0 12.384 1.184 18.272 3.648 192.96 74.4 254.688 98.656 275.904 108 4.928 0.48 9.568 2.336 13.12 5.856l602.72 602.304c20.288 20.256 31.456 47.168 31.456 75.744zM59.648-7.648c-3.68-1.536-7.488 1.344-8.896 2.688-2.464 2.464-4.384 6.464-3.072 9.6 9.28 23.584 19.648 49.92 30.208 76.672l59.2-59.072c-27.040-10.464-53.664-20.768-77.44-29.92zM180.8 39.2l-85.696 85.6c20.384 51.52 39.648 99.872 51.456 129.12l164.064-163.936c-29.376-11.68-77.984-30.688-129.792-50.752zM936.928 698.976l-587.584-587.168-60.128 60.064 482.368 482.048c8.352 8.384 8.352 21.92 0 30.336-8.384 8.32-21.952 8.32-30.336 0l-482.368-482.048-90.304 90.208 595.136 594.72c20.288 20.256 55.552 20.256 75.808 0l97.376-97.312c12.128-12.096 18.816-28.192 18.816-45.44 0.032-17.152-6.656-33.28-18.784-45.44zM207.616 471.104c4.192-4.16 9.664-6.272 15.168-6.272s10.976 2.112 15.168 6.272c8.384 8.384 8.384 21.92 0 30.336l-29.92 29.856 40.8 40.8c8.384 8.384 8.384 21.92 0 30.336-8.352 8.352-21.92 8.352-30.336 0l-40.8-40.8-44.8 44.736 123.008 123.008c8.384 8.32 8.384 21.888 0 30.272s-21.92 8.384-30.336 0l-123.008-122.944-49.76 49.728 220.608 220.448 185.152-185.024c8.384-8.352 21.92-8.352 30.336 0 8.352 8.352 8.352 21.888 0 30.304l-200.32 200.192c-4.032 4.032-9.44 6.272-15.168 6.272-5.664 0-11.104-2.24-15.168-6.272l-250.912-250.752c-8.352-8.352-8.352-21.92 0-30.304l200.288-200.16zM1016.672 224.672l-206.816 206.656c-8.384 8.384-21.92 8.384-30.336 0s-8.384-21.888 0-30.272l191.648-191.52-220.672-220.448-48 48 123.104 122.944c8.352 8.384 8.352 21.92 0 30.336s-21.952 8.384-30.336 0l-123.072-123.008-48.032 48 40.8 40.8c8.384 8.384 8.384 21.92 0 30.272s-21.92 8.384-30.336 0l-40.8-40.768-34.944 34.944c-8.384 8.32-21.92 8.32-30.336 0-8.352-8.384-8.352-21.92 0-30.336l206.784-206.656c4.032-4 9.44-6.272 15.136-6.272s11.136 2.272 15.2 6.272l250.944 250.752c4.032 4.064 6.272 9.44 6.272 15.136s-2.208 11.104-6.208 15.104z" />
<glyph unicode="&#xe917;" glyph-name="ikona_24" d="M694.816 259.264c-189.792 73.728-222.528 104.992-228.128 113.376v22.080c21.28 24 37.92 54.912 48.64 90.208 13.664 12 22.752 28.736 25.344 47.008 2.624 18.784-1.568 37.376-11.968 53.088v70.688c0 98.912-60.8 155.648-166.784 155.648-104.48 0-166.816-58.208-166.816-155.648v-70.688c-10.336-15.712-14.592-34.272-11.936-53.024 2.56-18.272 11.68-35.040 25.344-47.040 10.656-35.296 27.328-66.208 48.608-90.24v-22.048c-6.24-9.76-40.96-40.608-228.128-113.376-17.568-6.88-28.96-23.552-28.96-42.528v-86.496c0-25.152 20.384-45.632 45.408-45.632h632.896c25.12 0 45.472 20.48 45.472 45.632v86.496c-0.032 18.656-11.712 35.744-29.024 42.496zM681.12 130.24c0-2.176-1.44-3.648-2.784-3.648h-632.896c-1.312 0-2.752 1.472-2.752 3.648l2.016 90.016c210.080 81.696 246.336 116.448 254.208 141.888 0.608 1.952 0.928 4.032 0.928 6.112v34.592c0 5.408-2.144 10.592-5.92 14.528-20.576 21.184-36.576 50.656-46.144 85.248-1.312 4.64-4.16 8.704-8.128 11.52-7.648 5.408-12.832 14.048-14.208 23.616-1.376 9.888 1.312 19.648 7.712 27.488 3.008 3.744 4.64 8.352 4.64 13.056v77.44c0 74.368 42.944 113.664 124.16 113.664 82.336 0 124.128-38.24 124.128-113.664v-77.408c0-4.768 1.632-9.344 4.64-13.088 6.368-7.84 9.12-17.632 7.744-27.52-1.376-9.6-6.56-18.208-14.208-23.616-3.968-2.816-6.816-6.848-8.128-11.488-9.632-34.592-25.6-64.064-46.144-85.28-3.808-3.904-5.92-9.12-5.92-14.496v-34.592c0-2.080 0.288-4.128 0.928-6.112 7.904-25.472 44.128-60.288 256.192-145.376v-86.496zM998.144 228c-142.24 53.984-170.4 77.728-175.712 83.872v13.376c16.288 18.4 29.056 41.76 37.472 68.256 11.072 9.92 18.4 23.552 20.48 38.368 2.144 15.072-1.184 29.984-9.344 42.752v52.64c0 77.792-50.624 124.16-135.328 124.16-84.8 0-135.424-46.4-135.424-124.16v-52.672c-8.16-12.736-11.424-27.616-9.312-42.688 2.112-14.816 9.408-28.48 20.48-38.432 9.408-29.76 24.416-55.488 43.584-74.752 8.256-8.288 21.76-8.448 30.176-0.352 8.448 8.128 8.576 21.408 0.352 29.664-15.552 15.648-27.648 37.504-34.976 63.232-1.312 4.64-4.256 8.672-8.256 11.488-4.896 3.392-8.256 8.8-9.088 14.848-0.832 6.112 0.928 12.128 4.896 17.024 3.104 3.744 4.8 8.416 4.8 13.216v59.36c0 53.792 32.032 82.208 92.768 82.208 61.472 0 92.64-27.648 92.64-82.208v-59.328c0-4.832 1.696-9.504 4.8-13.216 4.032-4.896 5.824-11.008 4.96-17.056-0.832-6.048-4.128-11.424-9.056-14.816-4.064-2.784-6.976-6.848-8.32-11.52-7.328-25.728-19.424-47.584-34.912-63.232-3.936-3.936-6.080-9.184-6.080-14.688v-26.496c0-2.112 0.352-4.224 0.96-6.24 6.112-19.296 27.296-45.472 200.608-109.888l2.4-64.192h-195.52c-11.808 0-21.344-9.376-21.344-20.96s9.536-20.992 21.344-20.992h195.52c22.24 0 40.288 17.888 40.288 39.872v66.272c0.032 16.352-10.336 31.328-25.824 37.216z" />
<glyph unicode="&#xe918;" glyph-name="ikona_25" d="M877.056 734.272l-338.176-313.344c-17.44-16.16-45.76-16.16-63.2 0l-338.176 313.344c-8.704 8.096-22.208 7.36-30.080-1.696-7.872-9.024-7.2-22.912 1.536-31.008l338.24-313.344c16.832-15.52 38.464-23.36 60.096-23.36s43.264 7.84 60.128 23.36l338.208 313.344c8.736 8.096 9.408 22.016 1.536 31.008-7.84 9.12-21.376 9.856-30.112 1.696zM678.432 389.088c-9.056 7.744-22.528 6.432-30.048-2.88-7.584-9.312-6.304-23.2 2.752-30.976l226.592-194.144c3.968-3.424 8.832-5.088 13.6-5.088 6.144 0 12.224 2.72 16.384 7.872 7.584 9.344 6.368 23.2-2.72 31.008l-226.56 194.176zM336.16 389.088l-226.592-194.144c-9.088-7.84-10.24-21.664-2.752-31.008 4.224-5.216 10.24-7.872 16.352-7.872 4.864 0 9.664 1.632 13.664 5.088l226.592 194.144c9.056 7.808 10.304 21.664 2.784 30.976-7.52 9.344-20.992 10.592-30.016 2.848zM902.4 843.616h-781.088c-68 0-121.248-53.888-121.248-122.72v-545.952c0-68.704 53.28-122.528 121.248-122.528h781.088c67.040 0 121.568 55.008 121.568 122.528v545.984c0 67.648-54.528 122.72-121.568 122.72zM981.312 174.912c0-44.064-34.592-78.592-78.88-78.592h-781.12c-44.064 0-78.624 34.528-78.624 78.592v545.984c0 44.16 34.528 78.752 78.624 78.752h781.088c44.288 0 78.88-34.56 78.88-78.752v-545.984z" />
<glyph unicode="&#xe919;" glyph-name="ikona_26" d="M1000.928 797.088h-137.792c-12.544 0-22.912-10.272-22.912-22.912v-298.432h-183.616v298.432c0 12.64-10.272 22.912-22.912 22.912h-137.76c-12.64 0-22.976-10.272-22.976-22.912v-194.24h-103.424c-45.76 0-80.32-36.896-80.32-85.792v-154.016c0-24.16-25.28-56.16-44.384-56.16h-61.152v480.704c0 12.704-10.272 22.976-22.912 22.976h-137.76c-12.704 0-22.976-10.272-22.976-22.976v-642.816c0-12.64 10.272-22.912 22.976-22.912h137.76c12.64 0 22.912 10.272 22.912 22.912v116.128h61.152c48.672 0 90.304 56.128 90.304 102.112v154.016c0 19.232 10.72 39.904 34.4 39.904h103.424v-402.592c0-12.704 10.304-22.976 22.976-22.976h137.76c12.64 0 22.912 10.272 22.912 22.976v298.4h183.616v-298.4c0-12.704 10.368-22.976 22.912-22.976h137.792c12.736 0 23.008 10.272 23.008 22.976v642.72c0 12.704-10.272 22.976-23.008 22.976zM137.856 144.864h-91.872v596.832h91.872v-596.832zM610.688 154.304h-91.776v596.832h91.776v-596.832zM978.016 154.304h-91.872v596.832h91.872v-596.832z" />
<glyph unicode="&#xe91a;" glyph-name="ikona_27" d="M965.344 387.488l-201.568-54.752-197.024 115.264 197.024 115.232 201.568-54.72c1.856-0.512 3.712-0.768 5.568-0.768 9.408 0 18.080 6.4 20.672 16.064 3.072 11.584-3.712 23.456-15.168 26.56l-160.224 43.488 137.6 80.448c10.24 6.016 13.728 19.232 7.872 29.632-5.92 10.4-19.008 13.92-29.248 7.936l-137.632-80.448 42.944 162.336c3.072 11.584-3.712 23.392-15.168 26.528-11.328 3.072-23.072-3.808-26.208-15.328l-53.984-204.192-197.024-115.264v228.416l147.52 149.44c8.384 8.448 8.384 22.208 0 30.656-8.32 8.448-21.888 8.448-30.24 0l-117.312-118.816v163.040c0 11.968-9.632 21.696-21.472 21.696s-21.376-9.728-21.376-21.696v-163.040h-0.032v-61.28h0.032v-96.096c-84.608-10.208-150.592-81.664-150.592-168.96s65.984-158.72 150.592-168.96v-99.936h-0.032v-61.248h0.032v-160.992c0-11.968 9.6-21.728 21.376-21.728s21.472 9.76 21.472 21.728v160.992l117.312-118.848c4.192-4.224 9.664-6.304 15.168-6.304s10.912 2.112 15.104 6.304c8.384 8.416 8.384 22.208 0 30.624l-147.52 149.472v230.432l196.992-115.168 54.016-204.224c2.624-9.664 11.264-16.032 20.672-16.032 1.824 0 3.68 0.256 5.536 0.768 11.456 3.072 18.24 14.944 15.168 26.464l-42.976 162.368 137.632-80.512c3.424-1.984 7.072-2.848 10.72-2.848 7.328 0 14.56 3.904 18.528 10.784 5.952 10.4 2.432 23.616-7.872 29.632l-137.6 80.512 160.256 43.52c11.456 3.008 18.24 14.944 15.168 26.464s-14.816 18.304-26.304 15.296zM394.304 448.896c0 63.904 47.040 116.736 108.224 126.592v-89.92h-0.032v-75.104h0.032v-88.096c-61.248 9.792-108.224 62.592-108.224 126.528zM259.040 448c0 11.712-9.504 21.152-21.216 21.152h-184.928c-11.712 0-21.152-9.504-21.152-21.152s9.504-21.216 21.152-21.216h184.928c11.712 0 21.216 9.536 21.216 21.216zM300.48 255.136l-130.784-130.72c-8.256-8.256-8.256-21.696 0-29.92 4.16-4.16 9.536-6.272 14.976-6.272 5.408 0 10.848 2.112 14.976 6.272l130.784 130.72c8.288 8.256 8.288 21.696 0 29.92-8.288 8.32-21.728 8.32-29.984 0zM199.616 801.568c-8.256 8.288-21.696 8.288-29.92 0-8.256-8.256-8.256-21.696 0-29.92l130.784-130.784c4.16-4.16 9.6-6.208 14.976-6.208 5.44 0 10.848 2.080 14.976 6.208 8.288 8.256 8.288 21.696 0 29.984l-130.816 130.72z" />
<glyph unicode="&#xe91b;" glyph-name="ikona_28" d="M352.832 118.112c-13.792-0.032-26.848-5.472-36.608-15.328-9.952-10.016-15.424-23.36-15.424-37.504 0.032-29.056 23.424-52.768 52.032-52.768 28.704 0 52 23.68 52.064 52.8 0 29.056-23.328 52.768-52.064 52.768zM342.528 65.312c0 3.424 1.792 5.728 2.88 6.816 1.952 1.984 4.64 3.072 7.456 3.072 5.696 0 10.304-4.448 10.304-9.92-0.032-10.912-20.608-10.912-20.608 0.032zM487.104 950.112c-6.368 4.288-14.56 4.608-21.376 0.928-6.72-3.744-10.944-10.976-10.944-18.848l-0.064-140.16-50.208-76.832-106.656-0.032-50.176 76.864v140.16c0 7.872-4.192 15.104-10.944 18.88-6.784 3.68-14.976 3.36-21.376-0.928-68.256-45.888-108.96-122.56-108.96-205.024 0-97.088 93.408-172.064 135.872-201.088l-31.84-464.48c0-78.272 63.136-141.888 140.768-141.888s140.8 63.68 140.704 143.392l-31.776 462.976c42.432 29.024 135.872 104.032 135.872 201.088 0.032 82.464-40.672 159.136-108.896 205.024zM427.424 573.344c-6.528-4.224-10.304-11.808-9.792-19.744l32.608-474.112c0-54.592-44.416-99.008-99.040-99.072-54.624 0-99.008 44.416-99.104 97.536l32.64 475.616c0.544 7.904-3.2 15.52-9.824 19.744-29.728 18.976-126.816 87.456-126.816 171.712 0 53.76 21.024 104.544 57.76 142.24v-101.792c0-4.256 1.184-8.416 3.552-11.968l59.936-91.744c3.904-5.92 10.4-9.504 17.312-9.504l128.928 0.032c6.944 0 13.44 3.552 17.344 9.472l59.936 91.744c2.304 3.552 3.552 7.648 3.552 11.968l0.032 101.792c36.704-37.696 57.76-88.48 57.76-142.24 0.064-84.192-97.024-152.704-126.816-171.68zM905.44 388.8c7.424 3.52 12.192 11.072 12.192 19.488v88.832c0 11.84-9.376 21.44-20.896 21.44h-105.856v287.968h4.352c9.088 0 17.152 6.048 19.872 14.976l19.488 63.264c1.536 4.864 1.248 10.080-0.704 14.784l-19.424 47.328c-3.264 7.968-10.848 13.088-19.2 13.088h-50.464c-8.448 0-15.936-5.12-19.2-13.088l-19.488-47.328c-1.888-4.672-2.176-9.888-0.64-14.784l19.488-63.264c2.72-8.928 10.784-14.976 19.872-14.976h4.352v-287.968h-105.92c-11.488 0-20.832-9.6-20.832-21.44v-88.832c0-8.416 4.736-15.968 12.192-19.488 15.36-7.264 24.928-19.776 24.928-32.704 0-12.832-9.6-25.376-24.96-32.672-7.424-3.552-12.16-11.104-12.16-19.488v-242.624c0-69.088 66.24-125.312 147.616-125.312 81.44 0 147.68 56.224 147.68 125.312v242.624c0 8.384-4.8 15.936-12.192 19.488-15.36 7.264-24.928 19.808-24.928 32.672-0.064 12.896 9.536 25.44 24.896 32.704zM747.52 890.144l11.040 26.944h22.784l11.040-26.944-12.512-40.736h-19.872l-12.48 40.736zM875.872 420.928c-23.2-15.328-37.12-39.168-37.12-64.8s13.92-49.44 37.12-64.768v-229.984c0-45.472-47.52-82.464-105.92-82.464-58.368 0-105.856 36.992-105.856 82.464v229.984c23.2 15.328 37.12 39.168 37.12 64.768s-13.92 49.472-37.12 64.8v54.784h211.808v-54.784zM769.952 43.872c11.552 0 20.896 9.6 20.896 21.472v200.832c0 11.84-9.376 21.44-20.896 21.44s-20.832-9.6-20.832-21.44v-200.832c0-11.872 9.312-21.472 20.832-21.472z" />
<glyph unicode="&#xe91c;" glyph-name="ikona_29" d="M683.904 342.016c-15.744 15.936-42.848 16.896-60.256 0.768 0 0-59.52-57.952-65.088-60.992-34.976-0.032-123.712 73.92-179.168 149.152-33.152 45.12-36.768 67.36-36.8 69.856l64.192 62.624c8.192 8 12.768 18.784 12.832 30.176s-4.256 22.24-12.288 30.304l-209.888 213.088c-7.936 8.128-19.008 12.8-30.688 12.896-11.232 0-21.92-4.32-30.112-12.288-6.912-6.752-14.080-13.536-21.376-20.416-52-48.832-110.848-104.192-112.608-195.52-2.112-109.28 78.528-243.072 253.824-421.088 176.544-179.328 309.888-262.784 419.712-262.784 0.032 0 0.032 0 0.032 0 96.128 0 155.68 64.256 208.192 120.96l11.072 12c15.68 16.736 15.36 42.72-0.832 59.232l-210.784 212zM852.16 88.48c-50.88-54.944-98.976-106.976-175.968-106.944-95.936 0-223.008 81.664-388.416 249.696-164.192 166.784-243.136 294.272-241.28 389.76 1.44 72.96 50.976 119.52 98.848 164.544 7.488 7.072 14.912 14.016 20.736 21.024l210.016-211.872-64.768-63.168c-14.464-15.2-15.232-38.144-2.208-68.224 34.016-78.72 175.456-225.12 249.408-225.088h0.064c8.512 0 16.224 1.76 22.816 5.056 1.92 0.928 7.008 4.512 8.576 5.984 3.936 3.648 62.496 60.608 62.752 62.144l210.624-210.688-11.2-12.192zM828.768 483.328c-0.416-12.096 9.12-22.144 21.152-22.592 0.288 0 0.544 0 0.8 0 11.776 0 21.504 9.312 21.856 21.152 2.912 89.088-30.080 172.64-93.024 235.328-62.912 62.624-146.592 95.936-236.288 92.64-12.064-0.416-21.6-10.496-21.216-22.56 0.448-12.064 10.592-20.896 22.688-21.12 76.576 3.552 149.568-25.856 203.84-79.84s82.72-126.112 80.192-203.008zM884.672 821.888c-90.912 90.528-212.064 139.84-341.184 136.032-12.128-0.256-21.728-10.24-21.472-22.304 0.288-12.032 11.648-21.312 22.432-21.344 116.512 3.68 226.848-41.184 309.216-123.232s126.336-191.392 123.744-307.936c-0.256-12.064 9.344-22.048 21.44-22.336 0.192 0 0.352 0 0.512 0 11.872 0 21.664 9.472 21.888 21.376 2.816 128.576-45.696 249.248-136.576 339.808zM700.576 460.8c0.544-0.064 0.928-0.064 1.472-0.064 11.456 0 21.088 8.896 21.856 20.416 3.232 48.96-14.784 96.832-49.472 131.328-34.656 34.592-82.528 52.448-131.904 49.312-12.064-0.8-21.216-11.168-20.448-23.264 0.768-11.968 11.168-21.856 23.296-20.352 36.864 1.92 72.288-10.88 97.984-36.544 25.728-25.632 39.104-61.184 36.736-97.6-0.8-12.096 8.32-22.464 20.448-23.296z" />
<glyph unicode="&#xe91d;" glyph-name="ikona_30" d="M1017.792 855.712c-3.968 4.416-9.568 7.040-15.52 7.232l-638.976 18.624c-11.584 0.32-21.44-8.512-22.24-20.064-0.224-3.456-24.288-349.792-111.68-536.448-5.056-10.752-0.384-23.552 10.464-28.576s23.744-0.384 28.736 10.4c79.168 169.088 107.488 451.936 114.048 531.072l595.488-17.344c-32.896-358.144-114.24-743.456-218.688-762.432-1.376-0.256-2.72-0.448-4.128-0.512-0.64 0-2.912 0.032-6.592 0.032-40.256 3.36-90.336 63.392-142.496 171.456-3.488 7.296-10.848 12.064-18.976 12.224l-564.384 12.96c-6.464-0.128-12.928-2.72-17.184-7.808-4.224-5.056-5.856-11.776-4.48-18.208 1.824-8.288 45.824-203.84 204.992-207.52 167.52-3.936 479.84-5.792 539.264-6.112 2.048-0.128 4.192-0.192 6.272-0.192 5.184 0 10.304 0.48 15.488 1.408 174.048 31.616 239.872 637.792 255.968 823.68 0.544 5.888-1.408 11.712-5.376 16.128zM207.232 63.712c-94.272 2.24-139.2 98.752-155.808 146.912l521.696-12c31.424-63.2 62.080-109.888 92.352-140.448-119.744 0.832-330.976 2.56-458.24 5.536zM818.816 637.952c0.256 0 0.48 0 0.768 0 11.552 0 21.184 9.152 21.568 20.768 0.448 11.872-8.928 21.792-20.832 22.208l-325.888 11.392c-11.424 0.832-21.952-8.832-22.4-20.736s8.896-21.792 20.864-22.208l325.952-11.424zM448.128 524.992c-0.448-11.904 8.928-21.824 20.864-22.272l304.608-10.656c0.256-0.032 0.512-0.032 0.768-0.032 11.584 0 21.152 9.152 21.568 20.736 0.448 11.872-8.896 21.824-20.832 22.24l-304.608 10.688c-11.168 1.344-21.92-8.832-22.336-20.704zM409.536 377.824c-0.448-11.904 8.928-21.792 20.864-22.24l173.856-6.112c0.288 0 0.512 0 0.768 0 11.584 0 21.184 9.152 21.568 20.768 0.448 11.872-8.896 21.792-20.832 22.208l-173.888 6.112c-10.944 0.48-21.888-8.832-22.336-20.736z" />
<glyph unicode="&#xe91e;" glyph-name="ikona_34" horiz-adv-x="1325" d="M1241.449 598.588h-66.861c-16.565 0-30.118-13.553-30.118-30.118v-90.353h-120.471v98.184c0 44.875-38.551 82.522-84.329 82.522h-11.445c-15.059 0-26.202 11.746-26.202 27.708l-0.301 71.68c0 43.972-38.852 81.318-84.631 81.318h-274.673v60.235h180.405c16.565 0 30.118 13.553 30.118 30.118s-13.553 30.118-30.118 30.118h-421.647c-16.565 0-30.118-13.553-30.118-30.118s13.553-30.118 30.118-30.118h181.007v-60.235h-218.353c-45.779 0-83.125-36.744-83.125-81.92v-8.433c0-14.155-11.144-30.118-20.781-30.118h-77.704c-74.089 0-82.221-45.779-82.221-65.355v-394.24c0-45.478 36.744-82.522 82.221-82.522h106.014l189.139-229.798c5.722-7.228 14.155-11.144 23.191-11.144h538.504c46.080 0 84.932 37.647 84.932 82.221v98.485h120.471v-90.353c0-16.565 13.553-30.118 30.118-30.118h66.861c45.176 0 83.727 37.647 83.727 81.92v442.729c0 43.671-36.744 77.704-83.727 77.704zM1264.941 78.155c0-11.445-11.144-21.685-23.492-21.685h-36.744v90.353c0 16.565-13.553 30.118-30.118 30.118h-180.706c-16.565 0-30.118-13.553-30.118-30.118v-128.602c0-11.144-12.047-21.986-24.696-21.986h-524.348l-188.838 229.798c-5.722 7.228-14.155 11.144-23.191 11.144h-120.471c-12.047 0-21.986 10.24-21.986 22.287l-0.301 187.332c0 0.301 0.301 0.904 0.301 1.205s-0.301 0.904-0.301 1.205l-0.301 206.306c0.301 0 4.518 3.313 22.588 3.313h77.704c47.887 0 81.016 47.586 81.016 90.353v8.433c0 11.445 10.842 21.685 22.889 21.685h553.261c12.649 0 24.395-10.24 24.395-21.082l0.301-71.981c0-49.092 37.948-87.642 86.438-87.642h11.445c12.348 0 24.094-11.144 24.094-22.287v-128.301c0-16.565 13.553-30.118 30.118-30.118h180.706c16.565 0 30.118 13.553 30.118 30.118v90.353h36.744c9.336 0 23.492-4.518 23.492-17.468v-442.729z" />
<glyph unicode="&#xe91f;" glyph-name="ikona_35" horiz-adv-x="1122" d="M119.467 44.495c2.682-0.731 5.364-1.219 8.046-1.219 9.996 0 19.505 6.339 22.918 16.335 5.364 15.116 121.661 352.549 132.632 528.823h256.731c1.95-28.526 7.558-62.415 14.872-98.987h-211.383c-13.41 0-24.381-11.215-24.381-24.869s10.971-24.869 24.381-24.869h222.354c38.766-166.278 106.789-361.813 110.933-373.029 4.389-12.922 18.286-19.505 31.208-15.116 12.434 4.632 19.261 18.773 14.629 31.695-1.219 3.657-134.827 387.413-134.827 530.042 0 13.653-10.971 24.869-24.381 24.869h-303.787c-13.41 0-24.381-11.215-24.381-24.869 0-158.72-129.219-533.211-130.438-537.112-4.632-12.922 2.194-27.063 14.872-31.695zM889.417 538.941h-231.131c-13.41 0-24.381-10.971-24.381-24.869 0-13.653 10.971-24.625 24.381-24.625h207.482c1.95-30.232 6.583-64.122 13.166-99.23h-166.278c-13.41 0-24.381-10.971-24.381-24.869 0-13.653 10.971-24.625 24.381-24.625h176.518c29.745-133.608 76.556-269.41 79.238-277.699 3.657-10.24 12.922-16.579 23.162-16.579 2.682 0 5.364 0.488 8.046 1.463 12.678 4.632 19.261 18.773 14.872 31.695-0.975 2.926-100.693 291.84-100.693 434.469 0 13.897-10.971 24.869-24.381 24.869zM1097.143-6.461h-1072.762c-13.41 0-24.381-10.971-24.381-24.625 0-13.897 10.971-24.869 24.381-24.869h1072.762c13.41 0 24.381 10.971 24.381 24.869 0 13.653-10.971 24.625-24.381 24.625zM404.724 697.905c4.632 0 9.265 1.219 13.41 4.145 11.215 7.314 14.141 22.674 7.070 34.133-0.244 0.488-8.777 14.385-2.194 28.038 4.876 10.484 26.575 35.84 119.954 46.080 92.891 9.996 151.893 35.596 175.299 75.581 18.286 31.451 7.802 59.002 6.583 61.928-5.12 12.678-19.505 18.53-31.939 13.41-12.434-5.364-18.286-19.749-13.166-32.427 0.244 0 2.194-7.802-3.413-17.554-6.827-11.703-34.133-40.472-138.484-51.688-88.503-9.509-140.678-34.133-159.208-74.606-14.385-31.451-2.926-62.659 6.095-76.312 4.632-7.070 12.19-10.728 19.992-10.728zM760.442 593.067c4.145 0 8.29 1.219 11.947 3.901 11.215 7.558 14.141 21.211 6.583 32.67 0.244 0 6.583 7.802 38.278 11.215 43.886 4.632 70.949 17.067 83.139 38.278 8.533 14.385 7.558 29.257 3.657 38.522-5.12 12.678-19.505 18.53-31.939 13.41-10.728-4.632-16.579-16.335-14.385-27.794-2.926-2.438-13.41-9.752-45.592-13.166-41.935-4.632-67.048-17.31-77.044-39.253-8.046-17.554-3.17-35.596 3.657-45.592 4.876-7.558 13.166-12.19 21.699-12.19z" />
<glyph unicode="&#xe920;" glyph-name="ikona_36" d="M1009.696 700.864h-266.88l-154.528 145.312c4.128 9.344 6.56 19.68 6.56 30.56 0 41.92-33.92 76.032-75.616 76.032s-75.616-34.112-75.616-76.032c0-12.832 3.488-24.8 9.12-35.392l-157.024-140.512h-266.912c-11.776 0-21.312-9.6-21.312-21.44v-729.056c0-11.808 9.536-21.44 21.312-21.44h980.896c11.776 0 21.312 9.632 21.312 21.44v729.056c-0.032 11.904-9.568 21.504-21.344 21.504zM519.2 909.856c18.144 0 32.928-14.848 32.928-33.12s-14.784-33.12-32.928-33.12c-18.208 0-32.928 14.848-32.928 33.12s14.752 33.12 32.928 33.12zM482.592 810.624c10.88-6.144 23.264-9.92 36.608-9.92 15.36 0 29.632 4.704 41.536 12.64l119.616-112.512h-320.512l122.752 109.76zM988.384 657.984v-85.76h-938.304v85.76h938.304zM50.080-28.192v557.536h938.304v-557.536h-938.304zM241.632 102.592h-39.872c-11.776 0-21.312-9.568-21.312-21.44s9.536-21.44 21.312-21.44h39.872c11.776 0 21.312 9.568 21.312 21.44s-9.536 21.44-21.312 21.44zM371.36 102.592h-39.872c-11.776 0-21.312-9.568-21.312-21.44s9.536-21.44 21.312-21.44h39.872c11.808 0 21.344 9.568 21.344 21.44s-9.536 21.44-21.344 21.44zM496.608 102.592h-39.872c-11.776 0-21.312-9.568-21.312-21.44s9.536-21.44 21.312-21.44h39.872c11.776 0 21.312 9.568 21.312 21.44s-9.536 21.44-21.312 21.44zM624.544 102.592h-39.872c-11.776 0-21.312-9.568-21.312-21.44s9.536-21.44 21.312-21.44h39.872c11.808 0 21.344 9.568 21.344 21.44s-9.536 21.44-21.344 21.44zM241.632 188.384h-39.872c-11.776 0-21.312-9.568-21.312-21.408 0-11.904 9.536-21.44 21.312-21.44h39.872c11.776 0 21.312 9.536 21.312 21.44 0 11.808-9.536 21.408-21.312 21.408zM371.36 188.384h-39.872c-11.776 0-21.312-9.568-21.312-21.408 0-11.904 9.536-21.44 21.312-21.44h39.872c11.808 0 21.344 9.536 21.344 21.44 0 11.808-9.536 21.408-21.344 21.408zM496.608 188.384h-39.872c-11.776 0-21.312-9.568-21.312-21.408 0-11.904 9.536-21.44 21.312-21.44h39.872c11.776 0 21.312 9.536 21.312 21.44 0 11.808-9.536 21.408-21.312 21.408zM624.544 188.384h-39.872c-11.776 0-21.312-9.568-21.312-21.408 0-11.904 9.536-21.44 21.312-21.44h39.872c11.808 0 21.344 9.536 21.344 21.44 0 11.808-9.536 21.408-21.344 21.408zM752.544 188.384h-39.872c-11.776 0-21.312-9.568-21.312-21.408 0-11.904 9.536-21.44 21.312-21.44h39.872c11.776 0 21.312 9.536 21.312 21.44 0 11.808-9.536 21.408-21.312 21.408zM880.48 188.384h-39.84c-11.808 0-21.344-9.568-21.344-21.408 0-11.904 9.536-21.44 21.344-21.44h39.84c11.776 0 21.312 9.536 21.312 21.44 0 11.808-9.536 21.408-21.312 21.408zM241.632 274.176h-39.872c-11.776 0-21.312-9.568-21.312-21.44s9.536-21.44 21.312-21.44h39.872c11.776 0 21.312 9.568 21.312 21.44s-9.536 21.44-21.312 21.44zM371.36 274.176h-39.872c-11.776 0-21.312-9.568-21.312-21.44s9.536-21.44 21.312-21.44h39.872c11.808 0 21.344 9.568 21.344 21.44s-9.536 21.44-21.344 21.44zM496.608 274.176h-39.872c-11.776 0-21.312-9.568-21.312-21.44s9.536-21.44 21.312-21.44h39.872c11.776 0 21.312 9.568 21.312 21.44s-9.536 21.44-21.312 21.44zM624.544 274.176h-39.872c-11.776 0-21.312-9.568-21.312-21.44s9.536-21.44 21.312-21.44h39.872c11.808 0 21.344 9.568 21.344 21.44s-9.536 21.44-21.344 21.44zM752.544 274.176h-39.872c-11.776 0-21.312-9.568-21.312-21.44s9.536-21.44 21.312-21.44h39.872c11.776 0 21.312 9.568 21.312 21.44s-9.536 21.44-21.312 21.44zM880.48 274.176h-39.84c-11.808 0-21.344-9.568-21.344-21.44s9.536-21.44 21.344-21.44h39.84c11.776 0 21.312 9.568 21.312 21.44s-9.536 21.44-21.312 21.44zM241.632 360.032h-39.872c-11.776 0-21.312-9.632-21.312-21.504s9.536-21.44 21.312-21.44h39.872c11.776 0 21.312 9.568 21.312 21.44s-9.536 21.504-21.312 21.504zM371.36 360.032h-39.872c-11.776 0-21.312-9.632-21.312-21.504s9.536-21.44 21.312-21.44h39.872c11.808 0 21.344 9.568 21.344 21.44s-9.536 21.504-21.344 21.504zM496.608 360.032h-39.872c-11.776 0-21.312-9.632-21.312-21.504s9.536-21.44 21.312-21.44h39.872c11.776 0 21.312 9.568 21.312 21.44s-9.536 21.504-21.312 21.504zM624.544 360.032h-39.872c-11.776 0-21.312-9.632-21.312-21.504s9.536-21.44 21.312-21.44h39.872c11.808 0 21.344 9.568 21.344 21.44s-9.536 21.504-21.344 21.504zM752.544 360.032h-39.872c-11.776 0-21.312-9.632-21.312-21.504s9.536-21.44 21.312-21.44h39.872c11.776 0 21.312 9.568 21.312 21.44s-9.536 21.504-21.312 21.504zM880.48 360.032h-39.84c-11.808 0-21.344-9.632-21.344-21.504s9.536-21.44 21.344-21.44h39.84c11.776 0 21.312 9.568 21.312 21.44s-9.536 21.504-21.312 21.504zM624.544 445.728h-39.872c-11.776 0-21.312-9.568-21.312-21.44s9.536-21.44 21.312-21.44h39.872c11.808 0 21.344 9.568 21.344 21.44s-9.536 21.44-21.344 21.44zM752.544 445.728h-39.872c-11.776 0-21.312-9.568-21.312-21.44s9.536-21.44 21.312-21.44h39.872c11.776 0 21.312 9.568 21.312 21.44s-9.536 21.44-21.312 21.44zM880.48 445.728h-39.84c-11.808 0-21.344-9.568-21.344-21.44s9.536-21.44 21.344-21.44h39.84c11.776 0 21.312 9.568 21.312 21.44s-9.536 21.44-21.312 21.44z" />
<glyph unicode="&#xe921;" glyph-name="ikona_37" d="M25.664 421.6h910.976l-96.512-99.040c-9.952-10.272-9.952-26.976 0-37.248 4.992-5.088 11.584-7.584 18.144-7.584s13.088 2.528 18.080 7.584l140.096 144.032c2.432 2.4 4.256 5.216 5.6 8.512 1.28 3.136 1.92 6.56 1.92 10.144 0 3.424-0.64 6.848-1.92 10.144-1.376 3.136-3.232 6.112-5.6 8.512l-140.096 143.904c-10.016 10.272-26.176 10.272-36.224 0-9.952-10.272-9.952-26.976 0-37.152l96.416-99.136h-910.88c-14.144 0-25.632-11.808-25.632-26.272 0-14.592 11.488-26.4 25.632-26.4z" />
<glyph unicode="&#xe922;" glyph-name="ikona_38" d="M653.344 48.064c-124.032 49.76-183.040 107.104-194.048 135.552v28.96c24.608 28.384 43.84 65.152 56.128 107.36 15.392 13.664 25.728 33.056 28.64 54.176 3.008 21.76-1.856 43.296-13.664 61.408v84.608c0 114.912-68.512 180.864-187.968 180.864-117.76 0-188.064-67.616-188.064-180.864v-84.672c-11.776-18.048-16.608-39.584-13.632-61.28 2.912-21.088 13.152-40.448 28.608-54.208 12.224-42.176 31.488-79.008 56.128-107.392v-28.96c-11.008-28.416-69.984-85.696-194.112-135.616-18.944-7.648-31.2-26.176-31.2-47.2v-43.136c0-11.936 9.568-21.6 21.408-21.6s21.44 9.632 21.44 21.6v43.136c0 3.2 1.76 6.144 4.288 7.136 117.696 47.328 204.128 112.352 220.128 165.824 0.608 2.016 0.928 4.16 0.928 6.24v40.896c0 5.536-2.112 10.848-5.888 14.816-23.968 25.44-42.528 60.832-53.632 102.336-1.28 4.736-4.128 8.896-8.096 11.776-9.472 6.944-15.872 17.92-17.536 30.144-1.76 12.64 1.664 25.12 9.504 35.136 2.976 3.808 4.608 8.48 4.608 13.344v91.648c0 88.8 51.552 137.728 145.184 137.728 96.32 0 145.12-46.336 145.12-137.728v-91.616c0-4.832 1.632-9.568 4.576-13.344 7.84-10.048 11.2-22.496 9.472-35.136-1.696-12.32-8.096-23.296-17.504-30.176-3.936-2.88-6.816-7.008-8.096-11.776-11.2-41.504-29.728-76.896-53.6-102.336-3.808-3.968-5.888-9.312-5.888-14.816v-40.896c0-2.080 0.32-4.224 0.928-6.24 16.032-53.472 102.464-118.592 220.096-165.824 2.496-0.992 4.32-3.936 4.32-7.136v-43.136c0-11.936 9.568-21.6 21.408-21.6s21.408 9.632 21.408 21.6v43.136c-0.096 21.024-12.352 39.648-31.36 47.264zM811.072 959.936h-193.728c-103.136 0-191.232-80.352-209.44-191.008-1.92-11.744 5.984-22.88 17.632-24.8 11.68-2.016 22.688 6.016 24.608 17.728 14.784 89.792 85.12 154.944 167.2 154.944h193.728c93.76 0 170.016-84.864 170.016-189.216 0-92.032-59.072-170.4-140.416-186.304-3.616-0.704-6.976-2.336-9.728-4.704l-146.304-124.384v98.816c0 11.936-9.568 21.6-21.408 21.6h-51.392c-11.84 0-21.408-9.632-21.408-21.6s9.568-21.568 21.408-21.568h29.984v-123.648c0-8.384 4.8-16 12.384-19.552 2.88-1.344 5.984-1.984 9.024-1.984 4.96 0 9.856 1.728 13.792 5.088l177.408 150.784c98.56 22.272 169.472 116.896 169.472 227.52 0 128.096-95.456 232.32-212.832 232.32zM580.832 748.032h249.12c11.84 0 21.408 9.632 21.408 21.6s-9.568 21.6-21.408 21.6h-249.12c-11.808 0-21.408-9.632-21.408-21.6s9.568-21.6 21.408-21.6zM580.832 661.728h124.544c11.84 0 21.408 9.632 21.408 21.6s-9.568 21.6-21.408 21.6h-124.544c-11.808 0-21.408-9.632-21.408-21.6s9.568-21.6 21.408-21.6z" />
</font>
</defs>
</svg>
